<svg xmlns="http://www.w3.org/2000/svg" width="145" height="64" fill="none">
  <g fill="#737288" clip-path="url(#clip0)">
    <path d="M.133 23.737h8.598l5.006 12.784 5.072-12.784h8.371L14.575 54H6.15l3.45-8.02L.134 23.738zM35.9 23.229c-6.46 0-10.543 5.782-10.543 11.54 0 6.48 4.477 11.617 10.421 11.617 4.434 0 6.106-2.696 6.106-2.696v2.1h7.499V23.738h-7.5v2.004s-1.864-2.514-5.982-2.514zm1.596 7.086c2.98 0 4.519 2.354 4.519 4.478 0 2.287-1.648 4.532-4.52 4.532-2.378 0-4.529-1.94-4.529-4.434 0-2.53 1.73-4.576 4.53-4.576zM51.965 45.79V14h7.844v11.819s1.863-2.588 5.764-2.588c4.773 0 7.57 3.55 7.57 8.621V45.79h-7.787V33.761c0-1.716-.819-3.374-2.674-3.374-1.889 0-2.873 1.683-2.873 3.374V45.79h-7.844zM86.515 23.231c-7.398 0-11.803 5.615-11.803 11.63 0 6.845 5.334 11.525 11.831 11.525 6.298 0 11.808-4.467 11.808-11.41 0-7.597-5.77-11.745-11.836-11.745zm.07 7.15c2.614 0 4.422 2.172 4.422 4.488 0 1.976-1.685 4.413-4.421 4.413-2.507 0-4.39-2.008-4.39-4.435 0-2.337 1.565-4.467 4.39-4.467zM111.418 23.231c-7.398 0-11.803 5.615-11.803 11.63 0 6.845 5.334 11.525 11.831 11.525 6.298 0 11.808-4.467 11.808-11.41 0-7.597-5.77-11.745-11.836-11.745zm.071 7.15c2.613 0 4.421 2.172 4.421 4.488 0 1.976-1.685 4.413-4.421 4.413-2.508 0-4.389-2.008-4.389-4.435 0-2.337 1.564-4.467 4.389-4.467zM129.443 46.258a5.203 5.203 0 005.208-5.198 5.203 5.203 0 00-5.208-5.198 5.203 5.203 0 00-5.208 5.198 5.203 5.203 0 005.208 5.198zM136.363 33.952h-9.376L135.308 14h9.342l-8.287 19.952z"/>
  </g>
  <defs>
    <clipPath id="clip0">
      <path fill="#fff" d="M0 0h144.516v64H0z" transform="translate(.133)"/>
    </clipPath>
  </defs>
</svg>