<svg xmlns="http://www.w3.org/2000/svg" width="194" height="64" fill="none">
  <path fill="#737288" fill-rule="evenodd" d="M18.037 18l-.447 6.708h-3.28l-.3-4.173H8.793v9.987h2.237c.167-.745.3-1.49.597-2.237h2.383v6.857h-2.233l-.597-2.237H8.943v10.583h5.217l.447-4.621 3.576.166.3 7.007H1.342v-2.383l2.383-.447V20.832l-2.833-.447v-2.383h17.141l.004-.002zm60.5 37.413c0-.745.166-1.341.166-1.938l1.789-.447V29.195c-.745-.167-1.342-.167-2.087-.3v-1.938l5.667-.745c.166.745.446 1.49.596 2.086.167 0 .167-.166.3-.166 1.342-1.64 3.13-2.087 5.217-1.939 2.533.3 4.025 1.939 4.622 4.174.3 1.043.596 2.086.596 3.13.167 2.236.167 4.471-.166 6.558-.167.745-.447 1.64-.745 2.383-1.044 2.237-2.834 3.577-5.217 3.727-1.342.167-2.533 0-3.727-.597h-.3v7.472l1.939.447c0 .596-.167 1.191-.167 1.938h-8.497l.014-.012zm6.708-12.371c1.49.596 3 .745 4.472.166.266-.117.479-.33.596-.596.167-.745.447-1.49.447-2.237.3-2.237.3-4.622.167-6.857a6.75 6.75 0 00-.447-2.385c-.447-1.64-1.64-2.236-3.28-1.938h-.3c-1.043.167-1.64.895-1.64 1.938V43.04l-.015.002zm56.645.45l1.938.446c0 .745 0 1.342-.166 2.087h-6.559V32.608c0-.596-.166-1.191-.3-1.788-.166-.745-.745-1.043-1.49-1.192-.745-.148-1.341-.166-1.938.167s-1.043.597-1.043 1.342v12.371l1.938.447c0 .597-.167 1.342-.167 2.087h-8.346v-2.084l1.938-.446V29.35c-.745-.167-1.342-.167-2.087-.3v-2.11l5.5-.745.447 1.788c.447-.3.895-.745 1.342-1.043 1.788-1.192 3.875-1.342 5.813-.597 1.64.597 2.533 1.939 2.833 3.727.167.447.167 1.043.167 1.49v11.18c.109.233.16.488.15.745l.03.007zm-115.373.166l1.938.447c0 .745-.167 1.342-.167 2.087h-8.496c0-.597 0-1.342.166-2.087l1.789-.447c.166-.446.166-13.416 0-14.161-.597-.167-1.342-.167-2.087-.3V27.09l5.5-.745.447 1.788.446-.446c1.789-1.49 3.875-1.939 6.112-1.342 1.938.447 3 1.788 3.428 3.727.167.446.167 1.043.167 1.49v11.925l1.938.446v2.107H31.14V33.073c0-.446 0-1.043-.167-1.49-.166-1.191-.895-1.788-1.938-1.938-.895-.167-1.64 0-2.237.745-.3.3-.3.597-.3 1.043v12.224l.019.001zm145.5-14.776c-.745 0-1.342-.167-2.087-.167v-1.788l6.41-.745c.3.745.597 1.49.597 2.383V43.62l1.938.447c0 .745-.167 1.341-.167 2.086h-5.5c-.166-.446-.3-1.043-.446-1.64-.167.167-.3.3-.447.3-2.237 2.087-5.217 1.789-7.155.895-1.49-.745-2.237-1.938-2.533-3.576-.167-.597-.167-1.044-.167-1.64V29.013c-.745-.166-1.49-.166-2.087-.3V26.94l6.26-.745c.167.745.447 1.342.447 2.087V39.61c0 .447 0 1.043.167 1.49.166 1.342 1.043 2.237 2.383 2.237.447 0 1.043-.167 1.49-.167.447-.167 1.192-1.043 1.192-1.49V29.307c-.3-.167-.3-.3-.3-.447l.005.022zM67.988 37.377c0 1.64.3 3 1.044 4.323.745 1.043 1.788 1.64 3.13 1.788 1.341 0 2.533-.3 3.726-.745.167 0 .3-.166.597-.166.3.596.447 1.191.745 1.788-.3.3-.745.447-1.043.745-2.384 1.342-4.917 1.788-7.454.895-2.236-.597-3.576-2.087-4.621-4.173-1.044-2.237-1.342-4.622-1.044-7.007.167-1.49.447-3 1.044-4.323 1.043-2.237 2.666-3.727 5.066-4.174 2.4-.446 4.472-.166 6.26 1.49 1.044 1.044 1.64 2.384 2.087 3.727.447 1.49.597 2.833.597 4.323 0 .447-.3.895-.447 1.49h-9.688l.001.019zm5.814-2.534c0-.596-.167-1.043-.167-1.49-.167-1.191-.3-2.236-.895-3.28-.597-1.191-1.64-1.49-2.833-1.043-.447.167-.745.447-1.044.895-.596 1.64-.895 3.28-1.043 4.917v.446l5.962-.446.02.001zm85.416 2.534l-9.688.166c-.167.745 0 1.342.167 1.939.153.979.564 1.9 1.191 2.666.745.895 1.64 1.342 2.834 1.342 1.193 0 2.383-.167 3.576-.597.3-.166.447-.166.745-.3.3.597.447 1.192.745 1.789-.166 0-.166.166-.3.166-2.086 1.49-4.323 1.939-6.856 1.789-3-.3-5.067-2.087-6.112-4.917-1.49-3.577-1.342-7.155.167-10.733.895-2.237 2.533-3.875 5.066-4.324 1.939-.446 3.875-.3 5.5.895 1.192.895 1.939 2.087 2.534 3.28.596 1.64.895 3.577.895 5.367 0 .447-.3.895-.447 1.49l-.017-.018zm-3.726-2.534c0-1.341-.167-2.533-.597-3.726-.167-.597-.447-1.192-.895-1.64-.745-1.044-3.13-.745-3.428.596-.3 1.044-.597 2.087-.745 3.28-.167.597-.167 1.192-.167 1.939l5.813-.447.019-.002zm-30.56 2.534l-9.689.166c0 1.789.3 3.28 1.342 4.622.745.895 1.64 1.342 2.667 1.342 1.191 0 2.533-.167 3.576-.597.3-.167.447-.167.745-.3.3.597.447 1.192.745 1.788-.3.167-.446.3-.596.447a10.084 10.084 0 01-7.155 1.342c-2.384-.447-4.025-1.939-5.067-4.025-1.043-2.237-1.342-4.472-1.192-6.857.167-1.64.447-3.13 1.044-4.622.745-1.788 1.938-3.13 3.726-3.875 2.087-.895 4.174-.895 6.26.167 1.342.745 2.237 1.938 2.834 3.28.745 1.788 1.043 3.727 1.043 5.667.167.446-.167.895-.3 1.49l.017-.035zm-3.727-2.534c0-.596-.167-1.191-.167-1.788-.166-1.043-.3-2.087-.895-3-.745-1.192-1.788-1.64-3-1.043-.3.166-.596.3-.745.745-.596 1.191-.895 2.533-1.043 3.875 0 .446-.167.895-.167 1.49 1.939 0 3.875-.167 5.962-.3l.055.021zM55.3 26.347l.447 1.788c.3-.167.446-.3.745-.447a11.271 11.271 0 014.323-1.341c.745-.167 1.342.166 1.788.745l-.596 5.216c-1.044 0-2.087-.166-3.13-.166-.167-.895-.3-1.789-.3-2.834-.745 0-1.342.3-1.939.745V43.47l1.939.447c0 .596 0 1.341-.167 1.938h-8.327v-1.938l1.789-.447V29.323c-.745-.166-1.342-.166-2.087-.3V26.94c1.788 0 3.577-.3 5.5-.597l.015.004zM179.767 46.04c0-.745 0-1.342.166-1.938l1.789-.447V29.493c-.597-.166-1.342-.166-2.087-.3V27.09l5.667-.745.446 1.64 2.384-1.043c.895-.3 1.64-.447 2.533-.597.745-.167 1.342 0 1.788.745l-.596 5.217c-1.044 0-2.087-.167-3.13-.167-.167-.895-.3-1.938-.3-2.833l-1.939.745v13.566l1.939.447c0 .597-.167 1.342-.167 1.938h-8.497l.004.037zm-74.1-16.712l-1.939.745V43.64l1.939.447c0 .745-.167 1.341-.167 1.938h-8.347v-1.938l1.789-.447V29.478c-.745-.166-1.342-.166-2.087-.3V27.09l5.667-.745.446 1.64 1.64-.895a11.898 11.898 0 013.28-.895c.895 0 1.49.3 1.939.895l-.597 5.217c-1.043 0-2.087-.167-3.13-.167l-.447-2.833.014.021zM44.553 22.62v4.025H48c-.167.895-.167 1.64-.167 2.533-1.043 0-2.086.167-3.13.3v12.67c.167.745.597 1.342 1.49 1.342h1.939c0 .745.166 1.342.166 2.087-.446.3-1.043.446-1.64.596-1.191.3-2.383.3-3.576.167-1.789-.3-3-1.49-3.28-3.428V29.495c-.745-.167-1.49-.3-2.237-.3 0-.745 0-1.64.167-2.383.895 0 1.64-.167 2.533-.167l1.043-3.727 3.28-.3-.035.002z" clip-rule="evenodd"/>
</svg>