<svg xmlns="http://www.w3.org/2000/svg" width="224" height="64" fill="none">
  <path fill="#737288" d="M27.388 18v5.614h-1.12c-.56-.188-.748.188-.748.56l-5.426 17.217-1.31 3.93c0 .188-.374.373-.56.373H9.61l-.188-.56-6.55-20.96c-.188-.56-.374-.56-.936-.56H.816V18h11.976v5.614H10.36l3.93 15.533h.188l4.304-15.532H16.35V18h11.038zm18.9 7.485h8.046l.188 2.806c.56-.56.936-1.12 1.31-1.497 2.246-1.872 4.866-2.245 7.672-1.31 2.06.748 2.994 2.432 2.994 4.68v9.92h1.684v5.614H59.2v-12.54c0-1.12-.374-1.684-1.12-1.872-.936-.188-1.684 0-2.246.748l-.374.56-.188.56v6.924h1.31v5.614H46.29v-5.611h1.496V31.1H46.29l-.002-5.616zm49.026 5.425H94v-5.613h8.8v14.78h1.684v5.614H96.25v-2.06c-.374.373-.56.748-.936.935-2.06 1.872-5.614 2.246-8.046 1.12-1.872-.935-2.806-2.431-2.806-4.49l-.188-9.355v-.748H82.59V25.48h8.98v11.976c0 .56 0 1.12.188 1.496.188.748.936 1.12 1.684 1.12.748 0 1.31-.373 1.684-1.12.188-.188.188-.56.188-.935V30.91zm-50.336 5.988h-12.54c0 1.12 0 2.246.56 3.18.374.748 1.31 1.12 2.06 1.12s1.684-.373 2.06-1.31c.188-.373.188-.747.374-1.31h6.924c-.188 2.246-1.12 4.116-2.994 5.426a9.448 9.448 0 01-4.304 1.684c-2.06.374-4.304.188-6.36-.373-2.806-.936-4.68-2.806-5.426-5.426a14.72 14.72 0 010-8.983c1.12-3.555 3.74-5.613 7.484-6.175 1.684-.189 3.368-.189 5.052.373 3.74 1.12 5.8 3.556 6.55 7.485.374 1.495.374 2.806.56 4.303v.006zm-12.35-3.93h4.866c0-1.12 0-2.06-1.12-2.6-.936-.56-1.872-.56-2.6 0-1.12.56-1.12 1.497-1.12 2.6h-.026zm109.84 3.93h-12.54c0 1.12 0 2.246.56 3.18.56.934 1.31 1.12 2.246 1.12a2.3 2.3 0 002.058-1.31l.374-1.12h6.924c-.374 4.117-3.368 6.925-7.484 7.3-2.06.189-3.93.189-5.8-.56-2.806-.936-4.68-2.806-5.614-5.614a14.121 14.121 0 010-8.793c1.12-3.74 3.93-5.614 7.672-6.177 1.684-.188 3.556-.188 5.24.375 3.556 1.12 5.426 3.556 6.176 6.923.188 1.684.188 3.18.188 4.68v-.004zm-12.16-3.93h4.866c0-2.06-.936-3.18-2.6-2.994-1.496.189-2.432 1.31-2.246 2.994h-.02zm-61.19-7.672h2.246v-3.93c0-.747.188-.936.936-1.12l5.8-1.31v6.36h3.18v5.614H78.1v7.86c.188 1.31 1.12 1.872 2.246 1.684.188 0 .374 0 .748-.188v3.556c0 1.684 0 1.684-1.684 1.872-1.684.188-3.368.374-5.24 0-2.432-.56-3.556-2.06-3.556-4.49V30.914H68.93c.188-1.684.188-3.556.188-5.614v-.002zm36.862 20.397V40.08h1.684V31.1h-1.684v-5.62h7.86c0 .935.188 2.06.188 3.18.188-.189.188-.375.188-.56.56-1.684 1.872-2.6 3.556-2.806h2.6c.188 0 .374.188.374.373v6.177c-.936 0-2.06-.188-2.994 0-2.06.373-2.994 1.495-3.18 3.556v4.49h2.246v5.614l-10.854.188h.016z"/>
  <path fill="#737288" d="M158.628 18.186c1.12.189 2.246.189 3.18.56 4.304 1.12 6.55 6.36 4.304 10.293-.56.935-1.31 1.495-2.246 2.06-.374.188-.748.373-1.31.747.188.189.374.189.56.189 2.994.936 4.304 3.18 4.49 5.988.374 4.115-2.246 7.11-6.36 7.483-1.31.188-2.6.188-3.74.188h-12.912V40.08h2.432V23.616h-2.432V18l14.034.188v-.003zm-4.116 16.467v5.425c0 .188.188.374.374.374h3.18c.748 0 1.496-.373 1.872-1.12.936-1.684 0-3.93-1.872-4.303-1.12-.375-2.246-.375-3.556-.375l.002-.002zm0-5.24c1.12 0 2.06 0 3.18-.189 1.31-.188 2.06-1.31 2.06-2.6s-.748-2.431-1.872-2.6c-1.124-.168-2.246-.188-3.368-.188v5.577zm68.486 1.872h-2.806c-.188 0-.374.188-.374.373v7.088c0 1.496.936 2.246 2.6 1.872h.374v4.49c0 .375 0 .56-.374.56-2.06.374-4.116.56-6.36.188-2.432-.56-3.556-1.872-3.556-4.303v-10.48h-.748c-1.12 0-.936.188-.936-.936v-4.68h2.246v-3.74c0-1.31-.188-1.12 1.12-1.31l5.614-1.31v6.36h3.368c-.188 2.06-.188 3.93-.188 5.8l.02.027zm-22.08 2.06v-1.872c0-1.12-.748-1.872-1.684-1.872-.936 0-1.872.748-1.872 1.684v.747h-6.736c-.188-2.6 1.12-4.865 3.556-5.987 3.556-1.497 7.3-1.497 10.854.188 2.246 1.12 3.368 2.805 3.368 5.24v8.4h1.684v5.614h-8.4c0-.748-.188-1.31-.188-2.247-.188.188-.374.374-.374.56-2.246 2.6-6.36 2.6-8.608 1.497-1.684-.936-2.432-2.6-2.6-4.49-.188-4.117 1.872-6.736 6.176-7.485l4.49-.373c-.188.373 0 .373.374.373l-.04.022zm0 3.556h-1.684c-1.684.188-2.432 1.495-2.246 2.993.188 1.31 1.31 2.06 2.6 1.497.748-.188 1.12-.748 1.31-1.496l.02-2.995zm-11.976.188h-12.54c0 1.31 0 2.431.748 3.367.56.748 1.31.936 2.246.936.936 0 1.496-.56 1.872-1.31l.374-1.12h6.924c-.188 2.246-1.12 4.116-2.994 5.426-2.246 1.684-4.68 2.06-7.3 1.873-1.12 0-2.06-.189-3.18-.56-2.806-.748-4.49-2.6-5.426-5.24-.936-3.18-1.12-6.36.188-9.544 1.31-3.369 3.93-5.24 7.484-5.615 1.684-.188 3.556 0 5.24.375 3.556 1.12 5.426 3.74 6.176 7.3l.188 4.116v-.005zm-7.3-3.74c0-1.12-.188-2.246-1.12-2.806-.932-.56-1.872-.56-2.806.188-.748.56-.936 1.495-.936 2.6l4.862.017z" opacity=".5"/>
</svg>